<svg width="24" height="24" viewBox="0 0 24 24" xmlns="http://www.w3.org/2000/svg">
    <path d="M11.987 4c-2.959 0-5.452 1.454-7.5 3.844a16.729 16.729 0 0 0-1.813 2.562 11.48 11.48 0 0 0-.593 1.188 1.058 1.058 0 0 0 0 .812c.108.252.292.66.593 1.188a16.729 16.729 0 0 0 1.813 2.562C6.535 18.546 9.028 20 11.987 20c2.959 0 5.452-1.454 7.5-3.844.7-.817 1.314-1.69 1.812-2.562.302-.528.486-.936.594-1.188a1.058 1.058 0 0 0 0-.812c-.108-.252-.292-.66-.594-1.188a16.721 16.721 0 0 0-1.812-2.562C17.439 5.454 14.946 4 11.987 4zm0 2c2.291 0 4.298 1.171 6 3.156a14.492 14.492 0 0 1 1.562 2.25c.155.271.222.411.313.594-.091.183-.158.323-.313.594-.439.768-.95 1.536-1.562 2.25-1.702 1.985-3.709 3.156-6 3.156s-4.298-1.171-6-3.156a14.57 14.57 0 0 1-1.563-2.25c-.154-.271-.221-.411-.312-.594.091-.183.158-.323.312-.594a14.57 14.57 0 0 1 1.563-2.25C7.689 7.171 9.696 6 11.987 6zm0 2a4 4 0 1 0 4 4 1 1 0 0 0-2 0 2 2 0 1 1-2-2c.245 0 .496.041.719.125a.997.997 0 0 0 1.281-.594.997.997 0 0 0-.594-1.281A3.957 3.957 0 0 0 11.987 8z" fill="#6E6E6E" fill-rule="evenodd"/>
</svg>
